<svg width="36" height="36" viewBox="0 0 36 36" fill="none"
    xmlns="http://www.w3.org/2000/svg">
    <path
        d="M29.25 11.25H27.5378C27.4188 10.9159 27.2829 10.5881 27.1305 10.2679L28.341 9.05625C28.5519 8.84528 28.6704 8.55918 28.6704 8.26087C28.6704 7.96257 28.5519 7.67647 28.341 7.4655L25.1595 4.284C24.9485 4.0731 24.6624 3.95462 24.3641 3.95462C24.0658 3.95462 23.7797 4.0731 23.5688 4.284L22.3571 5.4945C22.037 5.34182 21.7092 5.20588 21.375 5.08725V3.375C21.375 3.07663 21.2565 2.79048 21.0455 2.5795C20.8345 2.36853 20.5484 2.25 20.25 2.25H15.75C15.4516 2.25 15.1655 2.36853 14.9545 2.5795C14.7435 2.79048 14.625 3.07663 14.625 3.375V5.08725C14.2908 5.20588 13.963 5.34182 13.6429 5.4945L12.4313 4.284C12.2203 4.0731 11.9342 3.95462 11.6359 3.95462C11.3376 3.95462 11.0515 4.0731 10.8405 4.284L7.659 7.4655C7.4481 7.67647 7.32962 7.96257 7.32962 8.26087C7.32962 8.55918 7.4481 8.84528 7.659 9.05625L8.8695 10.2679C8.71682 10.588 8.58088 10.9158 8.46225 11.25H6.75C6.45163 11.25 6.16548 11.3685 5.95451 11.5795C5.74353 11.7905 5.625 12.0766 5.625 12.375V15.75H12.4875C12.3207 14.9327 12.3377 14.0886 12.5374 13.2788C12.737 12.4689 13.1143 11.7136 13.6418 11.0675C14.1693 10.4214 14.834 9.90074 15.5875 9.54318C16.3411 9.18561 17.1648 9.00011 17.9989 9.00011C18.833 9.00011 19.6566 9.18561 20.4102 9.54318C21.1638 9.90074 21.8284 10.4214 22.3559 11.0675C22.8835 11.7136 23.2607 12.4689 23.4604 13.2788C23.66 14.0886 23.6771 14.9327 23.5103 15.75H30.375V12.375C30.375 12.0766 30.2565 11.7905 30.0455 11.5795C29.8345 11.3685 29.5484 11.25 29.25 11.25Z"
        fill="white" />
    <path
        d="M22.5 14.625C22.5 13.4315 22.0259 12.2869 21.182 11.443C20.3381 10.5991 19.1935 10.125 18 10.125C16.8065 10.125 15.6619 10.5991 14.818 11.443C13.9741 12.2869 13.5 13.4315 13.5 14.625C13.5 15.0154 13.5652 15.3889 13.6586 15.75H22.3414C22.4347 15.3889 22.5 15.0154 22.5 14.625ZM14.625 25.875V30.375C14.625 30.6734 14.5065 30.9595 14.2955 31.1705C14.0845 31.3815 13.7984 31.5 13.5 31.5H6.75C6.45163 31.5 6.16548 31.3815 5.95451 31.1705C5.74353 30.9595 5.625 30.6734 5.625 30.375V25.875H2.25V31.5C2.25 32.0967 2.48705 32.669 2.90901 33.091C3.33097 33.5129 3.90326 33.75 4.5 33.75H31.5C32.0967 33.75 32.669 33.5129 33.091 33.091C33.5129 32.669 33.75 32.0967 33.75 31.5V25.875H14.625ZM20.8125 31.5C20.3649 31.5 19.9357 31.3222 19.6193 31.0057C19.3028 30.6893 19.125 30.2601 19.125 29.8125C19.125 29.3649 19.3028 28.9357 19.6193 28.6193C19.9357 28.3028 20.3649 28.125 20.8125 28.125C21.2601 28.125 21.6893 28.3028 22.0057 28.6193C22.3222 28.9357 22.5 29.3649 22.5 29.8125C22.5 30.2601 22.3222 30.6893 22.0057 31.0057C21.6893 31.3222 21.2601 31.5 20.8125 31.5ZM25.3125 31.5C24.8649 31.5 24.4357 31.3222 24.1193 31.0057C23.8028 30.6893 23.625 30.2601 23.625 29.8125C23.625 29.3649 23.8028 28.9357 24.1193 28.6193C24.4357 28.3028 24.8649 28.125 25.3125 28.125C25.7601 28.125 26.1893 28.3028 26.5057 28.6193C26.8222 28.9357 27 29.3649 27 29.8125C27 30.2601 26.8222 30.6893 26.5057 31.0057C26.1893 31.3222 25.7601 31.5 25.3125 31.5ZM29.8125 31.5C29.3649 31.5 28.9357 31.3222 28.6193 31.0057C28.3028 30.6893 28.125 30.2601 28.125 29.8125C28.125 29.3649 28.3028 28.9357 28.6193 28.6193C28.9357 28.3028 29.3649 28.125 29.8125 28.125C30.2601 28.125 30.6893 28.3028 31.0057 28.6193C31.3222 28.9357 31.5 29.3649 31.5 29.8125C31.5 30.2601 31.3222 30.6893 31.0057 31.0057C30.6893 31.3222 30.2601 31.5 29.8125 31.5ZM31.5 16.875H4.5C3.90326 16.875 3.33097 17.1121 2.90901 17.534C2.48705 17.956 2.25 18.5283 2.25 19.125V24.75H5.625V22.5H7.875C8.17337 22.5 8.45952 22.3815 8.67049 22.1705C8.88147 21.9595 9 21.6734 9 21.375V19.125H13.5C13.7984 19.125 14.0845 19.2435 14.2955 19.4545C14.5065 19.6655 14.625 19.9516 14.625 20.25V24.75H33.75V19.125C33.75 18.5283 33.5129 17.956 33.091 17.534C32.669 17.1121 32.0967 16.875 31.5 16.875ZM7.875 21.375H5.625L7.875 19.125V21.375ZM20.8125 22.5C20.3649 22.5 19.9357 22.3222 19.6193 22.0057C19.3028 21.6893 19.125 21.2601 19.125 20.8125C19.125 20.3649 19.3028 19.9357 19.6193 19.6193C19.9357 19.3028 20.3649 19.125 20.8125 19.125C21.2601 19.125 21.6893 19.3028 22.0057 19.6193C22.3222 19.9357 22.5 20.3649 22.5 20.8125C22.5 21.2601 22.3222 21.6893 22.0057 22.0057C21.6893 22.3222 21.2601 22.5 20.8125 22.5ZM25.3125 22.5C24.8649 22.5 24.4357 22.3222 24.1193 22.0057C23.8028 21.6893 23.625 21.2601 23.625 20.8125C23.625 20.3649 23.8028 19.9357 24.1193 19.6193C24.4357 19.3028 24.8649 19.125 25.3125 19.125C25.7601 19.125 26.1893 19.3028 26.5057 19.6193C26.8222 19.9357 27 20.3649 27 20.8125C27 21.2601 26.8222 21.6893 26.5057 22.0057C26.1893 22.3222 25.7601 22.5 25.3125 22.5ZM29.8125 22.5C29.3649 22.5 28.9357 22.3222 28.6193 22.0057C28.3028 21.6893 28.125 21.2601 28.125 20.8125C28.125 20.3649 28.3028 19.9357 28.6193 19.6193C28.9357 19.3028 29.3649 19.125 29.8125 19.125C30.2601 19.125 30.6893 19.3028 31.0057 19.6193C31.3222 19.9357 31.5 20.3649 31.5 20.8125C31.5 21.2601 31.3222 21.6893 31.0057 22.0057C30.6893 22.3222 30.2601 22.5 29.8125 22.5Z"
        fill="white" />
    <path
        d="M12.9375 24.75H7.3125C7.16332 24.75 7.02024 24.6907 6.91475 24.5852C6.80926 24.4798 6.75 24.3367 6.75 24.1875C6.75 24.0383 6.80926 23.8952 6.91475 23.7898C7.02024 23.6843 7.16332 23.625 7.3125 23.625H12.9375C13.0867 23.625 13.2298 23.6843 13.3352 23.7898C13.4407 23.8952 13.5 24.0383 13.5 24.1875C13.5 24.3367 13.4407 24.4798 13.3352 24.5852C13.2298 24.6907 13.0867 24.75 12.9375 24.75ZM12.9375 27H7.3125C7.16332 27 7.02024 26.9407 6.91475 26.8352C6.80926 26.7298 6.75 26.5867 6.75 26.4375C6.75 26.2883 6.80926 26.1452 6.91475 26.0398C7.02024 25.9343 7.16332 25.875 7.3125 25.875H12.9375C13.0867 25.875 13.2298 25.9343 13.3352 26.0398C13.4407 26.1452 13.5 26.2883 13.5 26.4375C13.5 26.5867 13.4407 26.7298 13.3352 26.8352C13.2298 26.9407 13.0867 27 12.9375 27ZM12.9375 29.25H7.3125C7.16332 29.25 7.02024 29.1907 6.91475 29.0852C6.80926 28.9798 6.75 28.8367 6.75 28.6875C6.75 28.5383 6.80926 28.3952 6.91475 28.2898C7.02024 28.1843 7.16332 28.125 7.3125 28.125H12.9375C13.0867 28.125 13.2298 28.1843 13.3352 28.2898C13.4407 28.3952 13.5 28.5383 13.5 28.6875C13.5 28.8367 13.4407 28.9798 13.3352 29.0852C13.2298 29.1907 13.0867 29.25 12.9375 29.25Z"
        fill="white" />
</svg>